<svg xmlns="http://www.w3.org/2000/svg" viewBox="0 0 1200 630" role="img" aria-labelledby="title desc">
  <title id="title">Celestial Governance Institute social preview</title>
  <desc id="desc">Deep navy Celestial Governance Institute seal and formal research positioning on a white field.</desc>
  <rect width="1200" height="630" fill="#fffdf8"/>
  <rect x="48" y="48" width="1104" height="534" fill="none" stroke="#d8d1c2" stroke-width="2"/>
  <g transform="translate(96 78)" fill="none" stroke="#061b42" stroke-linecap="round" stroke-linejoin="round">
    <circle cx="112" cy="96" r="78" stroke-width="8"/>
    <path d="M36 94c7 58 44 92 76 92s69-34 76-92" stroke-width="8"/>
    <path d="M42 145c35-52 82-78 142-57" stroke-width="6"/>
    <path d="M182 145c-35-52-82-78-142-57" stroke-width="6"/>
    <path d="M112 62c-2 40-17 73-54 106" stroke-width="8"/>
    <path d="M112 62c2 40 17 73 54 106" stroke-width="8"/>
    <circle cx="112" cy="44" r="13" fill="#061b42" stroke="none"/>
  </g>
  <text x="96" y="330" fill="#061b42" font-family="Cormorant Garamond, Georgia, serif" font-size="78" font-weight="600">Celestial Governance Institute</text>
  <text x="96" y="384" fill="#31425f" font-family="Raleway, Arial, sans-serif" font-size="27">Research and policy analysis for outer space governance.</text>
  <line x1="96" y1="438" x2="1104" y2="438" stroke="#061b42" stroke-opacity="0.35"/>
  <text x="96" y="494" fill="#061b42" font-family="IBM Plex Mono, Consolas, monospace" font-size="24" letter-spacing="2">OSTGAP  /  LUNAR PROJECT  /  GOLDEN DOME LEGAL ANALYSIS</text>
  <text x="96" y="548" fill="#31425f" font-family="Raleway, Arial, sans-serif" font-size="22">celestialgovernance.org</text>
</svg>
